<svg width="33" height="33" viewBox="0 0 33 33" fill="none" xmlns="http://www.w3.org/2000/svg">
<path d="M11.3333 31.2417H7.88889C4.08426 31.2417 1 28.15 1 24.3363V13.4733C1 11.0586 2.25827 8.81929 4.31836 7.56775L12.9295 2.33635C15.1241 1.00312 17.8759 1.00312 20.0705 2.33635L28.6816 7.56775C30.7417 8.81929 32 11.0586 32 13.4733V24.3363C32 28.15 28.9157 31.2417 25.1111 31.2417H21.6667M11.3333 31.2417V24.3363C11.3333 21.4759 13.6464 19.1572 16.5 19.1572C19.3535 19.1572 21.6667 21.4759 21.6667 24.3363V31.2417M11.3333 31.2417H21.6667" stroke="#2E1810" stroke-width="2" stroke-linecap="round" stroke-linejoin="round"/>
</svg>
